<svg width="413" height="413" viewBox="0 0 413 413" fill="none" xmlns="http://www.w3.org/2000/svg">
<path d="M283.875 161.758L129 72.4471" stroke="black" stroke-width="15" stroke-linecap="round" stroke-linejoin="round"/>
<path d="M361.75 275.333V137.667C361.744 131.631 360.151 125.704 357.13 120.478C354.11 115.253 349.768 110.914 344.542 107.896L224.083 39.0629C218.851 36.0422 212.916 34.452 206.875 34.452C200.834 34.452 194.899 36.0422 189.667 39.0629L69.2083 107.896C63.9815 110.914 59.6402 115.253 56.6198 120.478C53.5994 125.704 52.0062 131.631 52 137.667V275.333C52.0062 281.369 53.5994 287.296 56.6198 292.522C59.6402 297.747 63.9815 302.086 69.2083 305.104L189.667 373.937C194.899 376.958 200.834 378.548 206.875 378.548C212.916 378.548 218.851 376.958 224.083 373.937L344.542 305.104C349.768 302.086 354.11 297.747 357.13 292.522C360.151 287.296 361.744 281.369 361.75 275.333Z" stroke="black" stroke-width="15" stroke-linecap="round" stroke-linejoin="round"/>
<path d="M56 119.77L206.229 206.672L356.457 119.77" stroke="black" stroke-width="15" stroke-linecap="round" stroke-linejoin="round"/>
<path d="M207 379.96V206.5" stroke="black" stroke-width="15" stroke-linecap="round" stroke-linejoin="round"/>
</svg>
